<svg width="512" height="512" xmlns="http://www.w3.org/2000/svg">
 <g>
  <title>Layer 1</title>
  <g id="svg_6">
   <path stroke-width="5" d="m116,-8c-3,146.84729 -3,190.90148 -3,299.03448c0,105.46305 3,169.54187 3,226.94581l0,13.34975l0,2.66995" id="svg_3" stroke="#000" fill="none"/>
   <path stroke-width="5" d="m254,-14c-3,146.84729 -3,190.90148 -3,299.03448c0,105.46305 3,169.54187 3,226.94581l0,13.34975l0,2.66995" id="svg_4" stroke="#000" fill="none"/>
   <path stroke-width="5" d="m387,-3c-3,146.84729 -3,190.90148 -3,299.03448c0,105.46305 3,169.54187 3,226.94581l0,13.34975l0,2.66995" id="svg_5" stroke="#000" fill="none"/>
  </g>
  <g id="svg_10">
   <path stroke-width="5" d="m116,-8c-3,146.84729 -3,190.90148 -3,299.03448c0,105.46305 3,169.54187 3,226.94581l0,13.34975l0,2.66995" id="svg_7" stroke="#000" fill="none"/>
   <path stroke-width="5" d="m254,-14c-3,146.84729 -3,190.90148 -3,299.03448c0,105.46305 3,169.54187 3,226.94581l0,13.34975l0,2.66995" id="svg_8" stroke="#000" fill="none"/>
   <path stroke-width="5" d="m387,-3c-3,146.84729 -3,190.90148 -3,299.03448c0,105.46305 3,169.54187 3,226.94581l0,13.34975l0,2.66995" id="svg_9" stroke="#000" fill="none"/>
  </g>
  <g transform="rotate(90, 273.5, 258.5)" id="svg_14">
   <path stroke-width="5" d="m139.5,-162.16909c-3,228.3701 -3,296.88113 -3,465.04457c0,164.01125 3,263.66366 3,352.93561l0,20.76092l0,4.15218" id="svg_11" stroke="#000" fill="none"/>
   <path stroke-width="5" d="m277.5,-171.50001c-3,228.3701 -3,296.88113 -3,465.04457c0,164.01125 3,263.66366 3,352.93561l0,20.76092l0,4.15218" id="svg_12" stroke="#000" fill="none"/>
   <path stroke-width="5" d="m410.5,-154.39332c-3,228.3701 -3,296.88113 -3,465.04457c0,164.01125 3,263.66366 3,352.93561l0,20.76092l0,4.15218" id="svg_13" stroke="#000" fill="none"/>
  </g>
 </g>

</svg>