<svg width="512" height="512" xmlns="http://www.w3.org/2000/svg" style="vector-effect: non-scaling-stroke;">
 <title>board-5x5-s</title>
 <g>
  <title>Layer 1</title>
  <g id="svg_18">
   <path stroke-width="2" d="m97.99997,-14.00001c0,48.10317 -3.39019,205.54708 -1.81234,323.60316c0.90628,67.8082 1.81234,139.9365 1.81234,198.97221l0,24.05159l0,4.37302" id="svg_9" stroke="#000" fill="none"/>
   <path stroke-width="2" d="m203.99997,-21.00001c0,48.10317 -3.39019,205.54708 -1.81234,323.60316c0.90628,67.8082 1.81234,139.9365 1.81234,198.97221l0,24.05159l0,4.37302" id="svg_10" stroke="#000" fill="none"/>
   <path stroke-width="2" d="m306.99997,-11.00001c0,48.10317 -3.39019,205.54708 -1.81234,323.60316c0.90628,67.8082 1.81234,139.9365 1.81234,198.97221l0,24.05159l0,4.37302" id="svg_11" stroke="#000" fill="none"/>
   <path stroke-width="2" d="m407.99997,-8.00001c0,48.10317 -3.39019,205.54708 -1.81234,323.60316c0.90628,67.8082 1.81234,139.9365 1.81234,198.97221l0,24.05159l0,4.37302" id="svg_17" stroke="#000" fill="none"/>
  </g>
  <g transform="rotate(90, 246.384, 261)" id="svg_23">
   <path stroke-width="2" d="m92.49991,-68.12235c0,57.57029 -3.39019,246.0005 -1.81234,387.29102c0.90628,81.15343 1.81234,167.4772 1.81234,238.13164l0,28.78514l0,5.23366" id="svg_19" stroke="#000" fill="none"/>
   <path stroke-width="2" d="m198.49991,-76.50001c0,57.57029 -3.39019,246.0005 -1.81234,387.29102c0.90628,81.15343 1.81234,167.4772 1.81234,238.13164l0,28.78514l0,5.23366" id="svg_20" stroke="#000" fill="none"/>
   <path stroke-width="2" d="m301.49991,-64.53192c0,57.57029 -3.39019,246.0005 -1.81234,387.29102c0.90628,81.15343 1.81234,167.4772 1.81234,238.13164l0,28.78514l0,5.23366" id="svg_21" stroke="#000" fill="none"/>
   <path stroke-width="2" d="m402.49991,-60.9415c0,57.57029 -3.39019,246.0005 -1.81234,387.29102c0.90628,81.15343 1.81234,167.4772 1.81234,238.13164l0,28.78514l0,5.23366" id="svg_22" stroke="#000" fill="none"/>
  </g>
 </g>

</svg>