<svg width="512" height="512" xmlns="http://www.w3.org/2000/svg">
 <g>
  <title>Layer 1</title>
  <g id="svg_21">
   <path stroke-width="5" d="m95,-11c-3,146.84729 -3,190.90148 -3,299.03448c0,105.46305 3,169.54187 3,226.94581l0,13.34975l0,2.66995" id="svg_3" stroke="#000" fill="none"/>
   <path stroke-width="5" d="m199,-13c-3,146.84729 -3,190.90148 -3,299.03448c0,105.46305 3,169.54187 3,226.94581l0,13.34975l0,2.66995" id="svg_4" stroke="#000" fill="none"/>
   <path stroke-width="5" d="m301,-18c-3,146.84729 -3,190.90148 -3,299.03448c0,105.46305 3,169.54187 3,226.94581l0,13.34975l0,2.66995" id="svg_5" stroke="#000" fill="none"/>
   <path stroke-width="5" d="m404,-15c-3,146.84729 -3,190.90148 -3,299.03448c0,105.46305 3,169.54187 3,226.94581l0,13.34975l0,2.66995" id="svg_20" stroke="#000" fill="none"/>
  </g>
  <g transform="rotate(90, 252, 259.5)" id="svg_26">
   <path stroke-width="5" d="m99.00003,-165.86885c-3,233.51125 -3,303.56463 -3,475.51382c0,167.70354 3,269.59936 3,360.88103l0,21.2283l0,4.24566" id="svg_22" stroke="#000" fill="none"/>
   <path stroke-width="5" d="m203.00003,-169.04918c-3,233.51125 -3,303.56463 -3,475.51382c0,167.70354 3,269.59936 3,360.88103l0,21.2283l0,4.24566" id="svg_23" stroke="#000" fill="none"/>
   <path stroke-width="5" d="m305.00003,-177c-3,233.51125 -3,303.56463 -3,475.51382c0,167.70354 3,269.59936 3,360.88103l0,21.2283l0,4.24566" id="svg_24" stroke="#000" fill="none"/>
   <path stroke-width="5" d="m408.00003,-172.22951c-3,233.51125 -3,303.56463 -3,475.51382c0,167.70354 3,269.59936 3,360.88103l0,21.2283l0,4.24566" id="svg_25" stroke="#000" fill="none"/>
  </g>
 </g>

</svg>