<svg width="512" height="512" xmlns="http://www.w3.org/2000/svg" style="vector-effect: non-scaling-stroke;">
 <title>board-4x4-s</title>
 <g>
  <title>Layer 1</title>
  <g id="svg_12">
   <path stroke-width="2" d="m110.99997,-14.00001c0,48.10317 -3.39019,205.54708 -1.81234,323.60316c0.90628,67.8082 1.81234,139.9365 1.81234,198.97221l0,24.05159l0,4.37302" id="svg_9" stroke="#000" fill="none"/>
   <path stroke-width="2" d="m245.99997,-13.00001c0,48.10317 -3.39019,205.54708 -1.81234,323.60316c0.90628,67.8082 1.81234,139.9365 1.81234,198.97221l0,24.05159l0,4.37302" id="svg_10" stroke="#000" fill="none"/>
   <path stroke-width="2" d="m379.99997,-2.00001c0,48.10317 -3.39019,205.54708 -1.81234,323.60316c0.90628,67.8082 1.81234,139.9365 1.81234,198.97221l0,24.05159l0,4.37302" id="svg_11" stroke="#000" fill="none"/>
  </g>
  <g id="svg_16">
   <path transform="rotate(90, 267.366, 127.116)" stroke-width="2" d="m268.4813,-216.40315c0,59.97945 -3.39019,256.29495 -1.81234,403.49809c0.90628,84.54948 1.81234,174.48566 1.81234,248.0968l0,29.98972l0,5.45268" id="svg_13" stroke="#000" fill="none"/>
   <path transform="rotate(90, 266.119, 262.116)" stroke-width="2" d="m267.23438,-81.40318c0,59.97945 -3.39019,256.29495 -1.81234,403.49809c0.90628,84.54948 1.81234,174.48566 1.81234,248.0968l0,29.98972l0,5.45268" id="svg_14" stroke="#000" fill="none"/>
   <path transform="rotate(90, 252.403, 396.116)" stroke-width="2" d="m253.51859,52.59684c0,59.97945 -3.39019,256.29495 -1.81234,403.49809c0.90628,84.54948 1.81234,174.48566 1.81234,248.0968l0,29.98972l0,5.45268" id="svg_15" stroke="#000" fill="none"/>
  </g>
 </g>

</svg>