<svg width="512" height="500" xmlns="http://www.w3.org/2000/svg">
 <g>
  <title>Layer 1</title>
  <g id="svg_14">
   <path stroke-width="3" d="m0.80652,169.75809c22.71754,0 45.45311,-1.48808 115.33522,0c38.47483,0.81928 87.37517,3.27632 122.32524,3.27632c27.96005,0 73.40479,0.68902 101.3552,0c33.23702,-0.81935 54.12898,-2.45679 80.38516,-3.27632c20.95841,-0.65418 43.70956,-1.05752 52.4251,-1.63816c12.32564,-0.82115 17.47503,-1.63816 24.46505,-3.27632c0,0 1.7475,0 3.49501,0l1.7475,0l1.7475,0l0,0" id="svg_2" stroke="#000" fill="none"/>
   <path stroke-width="3" d="m165.36623,5.27634c0,22.33128 1.40237,44.68027 0,113.37418c-0.77209,37.82065 -3.08761,85.88953 -3.08761,120.24534c0,27.48465 -0.64934,72.15669 0,99.63186c0.77216,32.67189 2.31529,53.20863 3.08761,79.01837c0.6165,20.60206 0.99661,42.96636 1.54381,51.53372c0.77386,12.11606 1.54381,17.17791 3.08761,24.04907c0,0 0,1.71779 0,3.43558l0,1.71779l0,1.71779l0,0" id="svg_11" stroke="#000" fill="none"/>
   <path stroke-width="3" d="m337.98396,495.08551c0,-22.25733 -1.40237,-44.53232 0,-112.99876c0.77209,-37.69541 3.08761,-85.60512 3.08761,-119.84717c0,-27.39364 0.64934,-71.91776 0,-99.30194c-0.77216,-32.5637 -2.31529,-53.03243 -3.08761,-78.75671c-0.6165,-20.53384 -0.99661,-42.82409 -1.54381,-51.36307c-0.77386,-12.07594 -1.54381,-17.12102 -3.08761,-23.96943c0,0 0,-1.7121 0,-3.4242l0,-1.7121l0,-1.7121l0,0" id="svg_12" stroke="#000" fill="none"/>
   <path stroke-width="3" d="m511.80651,315.86037c-22.9266,0 -45.8714,1.48808 -116.3966,0c-38.8289,-0.81928 -88.17924,-3.27632 -123.45094,-3.27632c-28.21736,0 -74.0803,-0.68902 -102.28792,0c-33.54288,0.81935 -54.6271,2.45679 -81.1249,3.27632c-21.15129,0.65418 -44.11179,1.05752 -52.90754,1.63816c-12.43906,0.82115 -17.63585,1.63816 -24.69019,3.27632c0,0 -1.76358,0 -3.52717,0l-1.76358,0l-1.76358,0l0,0" id="svg_13" stroke="#000" fill="none"/>
  </g>
 </g>

</svg>