<svg width="128" height="128" xmlns="http://www.w3.org/2000/svg">
 <g>
  <title>Layer 1</title>
  <path stroke-width="3" d="m29.51223,109.44808c0.62689,1.00982 2.25242,1.91614 2.82101,2.35624c0.71921,0.55668 2.05564,1.52122 3.13446,2.35624c1.70576,1.32029 3.06354,2.30077 4.70169,3.02945c1.15834,0.51525 2.8975,0.72751 4.38824,1.34642c1.70473,0.70776 2.68352,1.64848 4.38824,2.35624c1.49074,0.61891 2.49087,1.1777 4.70169,1.34642c1.25063,0.09545 3.76135,0 6.26892,0c3.44791,0 5.33237,0.02737 7.5227,-0.33661c3.76839,-0.6262 6.30703,-1.52705 12.53784,-3.36605c3.15547,-0.93132 6.69156,-2.33117 9.08993,-3.36605c2.34488,-1.0118 4.38824,-2.35624 5.95547,-3.36605c3.13446,-2.01963 5.01513,-3.70266 7.5227,-5.72229c1.25378,-1.00982 3.13446,-3.02945 4.70169,-4.71247c1.56723,-1.68303 3.40071,-3.08211 4.70169,-4.37587c2.12033,-2.10857 3.57691,-4.17526 4.70169,-5.72229c0.8184,-1.12564 2.14624,-3.71657 2.50757,-5.04908c0.83139,-3.06596 1.25225,-4.99912 1.56723,-8.41513c0.27798,-3.01471 0,-6.7321 0,-14.47402c0,-3.02945 0,-9.08834 0,-12.11779c0,-2.35624 -0.21003,-4.71706 -0.31345,-6.05889c-0.15726,-2.04051 -0.57901,-3.37996 -0.94034,-4.71247c-0.27713,-1.02199 -0.42164,-2.75241 -0.94034,-4.37587c-0.68239,-2.1358 -1.31543,-4.00342 -2.82101,-7.06871c-0.98097,-1.99722 -3.24177,-5.23873 -4.0748,-6.05889c-1.47938,-1.45654 -2.87156,-4.30729 -4.0748,-5.38568c-2.15242,-1.92909 -4.08826,-2.33125 -6.26892,-3.70266c-1.57714,-0.99186 -4.0748,-2.35624 -5.32858,-3.02945c-2.50757,-1.34642 -5.89732,-3.25228 -10.03027,-4.37587c-4.64817,-1.26366 -7.17036,-1.34527 -10.97061,-1.68303c-2.18664,-0.19434 -5.67157,0.16151 -7.83615,0.67321c-3.19595,0.75552 -4.12939,1.09423 -5.95547,1.68303c-2.95669,0.95334 -6.45925,2.60706 -10.65716,5.04908c-1.98743,1.15613 -6.69573,3.50012 -9.40338,5.38568c-2.6299,1.83142 -6.18563,4.80606 -8.14959,6.7321c-1.80773,1.77282 -2.91008,2.60235 -4.38824,4.37587c-1.33853,1.60599 -3.21633,4.99608 -4.70169,7.74192c-2.32468,4.29742 -3.23433,6.00874 -4.0748,8.07852c-1.07048,2.63621 -1.44881,5.33902 -2.19412,9.42495c-0.42607,2.33576 -0.50335,5.39224 -0.62689,6.7321c-0.15749,1.70801 -0.31345,2.69284 -0.31345,3.36605c0,1.34642 0,2.01963 0,3.36605c0,1.00982 0,1.34642 0,1.68303c0,0.67321 0,1.00982 0,1.00982c0,0.33661 1.02811,-0.21314 1.88068,-1.00982c2.84735,-2.66069 5.31989,-6.06721 7.83615,-9.08834c2.81133,-3.37539 3.44791,-4.03926 4.0748,-4.71247l0,0l0.31345,-0.33661l0.31345,0" id="svg_3" stroke="#000" fill="none"/>
  <path stroke-width="3" d="m16.8475,70.05546c-0.32696,-0.36161 -0.74992,-0.26271 -1.96176,-1.80803c-1.07112,-1.36588 -2.18122,-2.96972 -3.26959,-4.70087c-1.19518,-1.90102 -1.75928,-3.44328 -2.61568,-4.33926c-1.1876,-1.2425 -2.33808,-1.60359 -2.94263,-2.53124c-0.19118,-0.29335 -0.98088,-0.72321 -0.98088,-1.08482l-0.32696,0" id="svg_6" stroke="#000" fill="none"/>
 </g>

</svg>