<svg width="128" height="128" xmlns="http://www.w3.org/2000/svg">
 <g>
  <title>Layer 1</title>
  <path d="m3.4999,19.50013c0.5,-0.5 1.76248,-0.96283 4.25001,-3.5c3.11617,-3.17837 4.17539,-4.85504 6.25001,-6.25001c1.2097,-0.8134 2.5,-1.5 3,-1.5l0.75,-0.5l0.25,0l0.25,0" id="svg_18" stroke-width="3" stroke="#000" fill="none"/>
  <path d="m5.24991,43.00017c1.53524,-0.9359 6.70109,-6.9076 15.65942,-15.91028c6.79895,-6.83261 14.69523,-13.48188 17.5017,-15.28635c3.02578,-1.94548 5.8339,-2.8077 8.29028,-3.43163l2.45638,-0.9359l1.22819,-0.9359l0.6141,0" id="svg_19" stroke-width="3" stroke="#000" fill="none"/>
  <path d="m5.49991,72.50021c0,-0.25 0.5,-1.25 2.25,-3.00001c1,-1 2.60907,-2.85992 4.25001,-4.25001c5.1256,-4.34204 8.13474,-8.85884 16.00002,-16.50002c6.22451,-6.04716 11.96568,-11.04275 16.00002,-14.25002c4.46252,-3.54767 7.57391,-5.90847 11.00002,-8.75001c2.04555,-1.69654 3.58869,-3.4205 6.75001,-6.25001c1.19279,-1.0676 2.45572,-2.04634 3.50001,-3c1.44182,-1.31669 2.22525,-1.72525 3.50001,-3c0.63737,-0.63738 1.25,-1.25 2.25,-2c1,-0.75 2.22039,-1.54757 3.00001,-2c0.967,-0.56117 2,-1 2.5,-1.25c0.5,-0.25 0.78218,-0.53266 1.5,-0.75c0.86272,-0.26121 1.50001,-1 2.00001,-1c1,0 1,-0.25 1.25,-0.5l0.25,0l0.25,0" id="svg_20" stroke-width="3" stroke="#000" fill="none"/>
  <path d="m2.4999,102.75026c0,-0.23017 0.69577,-0.42237 2.01137,-1.38101c0.9122,-0.66469 2.59275,-1.9149 5.14016,-4.3732c4.4988,-4.34144 16.93885,-19.38189 23.91291,-26.46939c8.43713,-8.57435 15.84162,-15.91288 26.59474,-25.31855c10.03281,-8.77563 15.82183,-13.19081 23.24246,-18.18332c5.55347,-3.73631 11.62123,-8.28607 16.09093,-12.42911l5.36364,-6.44472l0.89395,-1.15084" id="svg_22" stroke-width="3" stroke="#000" fill="none"/>
  <path d="m15.74992,125.2503c0.17391,0 0.19365,-0.38273 1.04348,-1.79374c1.42477,-2.36563 6.27905,-11.13163 19.47829,-25.90958c10.56883,-11.83292 21.57085,-22.68867 36.69571,-35.4762c14.32274,-12.10937 30.60874,-22.72071 39.47832,-28.69985l11.30437,-8.37079" id="svg_27" stroke-width="3" stroke="#000" fill="none"/>
  <path d="m46.24997,126.5003c2.58667,-3.53889 6.631,-9.59765 17.46003,-20.72781c15.55794,-15.99057 28.13004,-25.78338 36.21338,-32.52413l11.80169,-9.43705l4.85001,-3.5389l2.425,-2.02222" id="svg_30" stroke-width="3" stroke="#000" fill="none"/>
  <path d="m79.75002,120.25028c3.75001,-3.25 7.78294,-6.22354 14.75002,-13.75002c6.96708,-7.52647 12.75002,-12.00002 19.25003,-18.00003l3,-2.75001l1.00001,-0.75" id="svg_33" stroke-width="3" stroke="#000" fill="none"/>
  <path d="m105.50006,123.75029c0.50649,-0.20181 1.10066,-0.74779 1.51948,-1.21084c0.66222,-0.73216 1.60235,-1.56236 2.78572,-2.82531c0.5463,-0.58303 0.94308,-1.05399 1.77273,-1.81627c0.93863,-0.86242 2.18143,-1.67439 2.78572,-2.21988c0.74953,-0.67659 1.11151,-1.14141 1.77273,-1.81627c0.90876,-0.9275 2.10795,-1.92124 2.53248,-2.21988c0.68453,-0.48155 0.74243,-0.82204 1.01299,-1.00904c0.95658,-0.66113 2.02597,-1.41266 3.29222,-2.42169c0.50649,-0.40361 1.08716,-0.46273 1.26623,-0.60542c0.17907,-0.1427 0.25325,-0.40361 0.50649,-0.60542l0,0l0.25325,0" id="svg_37" stroke-width="3" stroke="#000" fill="none"/>
 </g>

</svg>