<svg width="128" height="128" xmlns="http://www.w3.org/2000/svg">
 <title>computer</title>

 <g>
  <title>Layer 1</title>
  <g id="svg_50">
   <path fill="none" stroke="#000" stroke-width="5" id="svg_39" d="m6.59658,64.91876c0,-1.58794 -0.19231,-6.7525 0,-13.49752c0.34012,-11.92939 0.84979,-18.2539 1.01981,-26.20105c0.06792,-3.17489 0,-5.95478 0,-7.93972c0,-1.58794 0,-2.38191 0,-2.77889c0,-0.39698 0,-0.79397 0,-1.19095c0,-0.39698 0,-0.39698 -0.33993,-0.39698c-0.33993,0 -0.33993,-0.39699 -0.33993,-0.39699c0,-0.39698 0.34608,-0.32191 0.67988,-0.39698c1.79759,-0.40428 5.09906,-1.19095 11.89781,-1.19095c3.05943,0 9.17831,0.39698 14.27739,0.39698c4.07925,0 10.20754,0.30956 13.93744,0c4.79535,-0.39799 9.88468,-1.30047 17.33682,-2.38191c6.48892,-0.94167 15.62864,-1.78655 20.7362,-1.58794c5.436,0.21138 12.91763,0.39698 16.99689,0.39698c5.09906,0 7.81858,0 10.53808,0c0.67986,0 2.36041,-0.47176 3.39938,-0.79397c1.67529,-0.51955 2.37956,-0.79397 2.7195,-0.79397c0.67986,0 1.01981,0 1.01981,0c0.33993,0 0.67986,0 0.67986,0.39698c0,0.39698 0,0.79397 0,1.19095c0,3.57286 -0.59523,7.54803 -1.01981,15.87943c-0.56692,11.12424 -0.67986,16.27641 -0.67986,24.21612c0,2.77891 0,6.74877 0.33993,7.93972l0,0.79397l0,0.39699"/>
   <path fill="none" stroke="#000" stroke-width="5" id="svg_43" d="m6.93652,60.15493c0,1.19095 0,1.58794 0,2.38191c0,1.19095 0,2.38191 0,3.57286c0,0.39699 0,1.98494 0,3.57288c0,0.79396 0,1.58794 0,1.98492c0,1.19095 0,1.98494 0,3.17589c0,0.79397 0,1.58794 0,1.98494c0,0.79396 0,0.79396 0,1.19095c0,0.39698 0,1.19095 0,1.19095c0,0.39698 0,0.79396 0,1.19095c0,0.39698 0.33993,0.39698 0.67988,0.39698c0.67988,0 2.37431,-0.42904 4.07925,-0.79397c2.03387,-0.43534 3.05945,-0.39698 4.4192,-0.39698c1.01981,0 4.4192,0 7.13869,0c4.75913,0 6.79876,0 10.87801,0c2.03963,0 5.77045,-0.19837 10.87801,-0.39698c2.0385,-0.07927 6.11888,-0.39699 8.83838,-0.39699c3.73931,0 5.44111,-0.09888 7.13869,0c3.41209,0.19874 5.10215,0.36916 7.81858,0.79397c2.38245,0.37259 5.09906,0.79397 6.45881,0.79397c2.37956,0 3.73932,0 5.77895,0c1.01981,0 2.70363,-0.59511 5.439,-0.79397c2.03568,-0.148 4.07925,0 5.439,0c2.37957,0 4.02334,0.79159 7.13869,1.19095c1.68955,0.21658 3.73932,0 3.73932,0c0.67988,0 1.35975,0 1.6997,0c1.35975,0 1.6997,0 2.7195,0c1.01981,0 1.75424,-0.54725 3.73931,0c1.47959,0.4079 3.43575,0.42915 4.75913,0.79397c1.47957,0.4079 2.33827,0.98986 3.39938,1.19095c0.6711,0.12718 1.11938,0.28071 1.35975,0c0.24037,-0.28071 0.24037,-0.51327 0,-0.79397c-0.24037,-0.28071 -0.33994,-0.39698 -0.33994,-0.79397c0,-1.19095 -0.33993,-3.17587 -0.33993,-7.14574c0,-1.58794 0,-2.77889 0,-3.96986c0,-0.39698 0,-1.98492 0,-3.57286c0,-1.19095 0,-1.98492 0,-2.77891c0,-0.39698 0,-0.39698 0,-1.19095c0,-0.79397 0.33993,-1.58794 0.33993,-1.98492c0,-0.39699 0.16531,-0.32701 0.33994,-1.19095c0.15621,-0.77272 0,-0.79397 0,-1.19095c0,-0.39699 0,-0.79397 0,-1.19095c0,0 -0.15597,-0.27529 -0.33994,-0.79397c-0.13009,-0.36676 0,-0.79397 0,-0.79397c0,-0.39699 0,-0.79397 0,-1.58794c0,-0.39698 -0.33993,-0.79397 -0.33993,-1.58794c0,-0.39699 0,-0.79397 0,-1.19095c0,-0.39699 0,-0.39699 0,-0.79397l0,-0.39698l0,-0.39699"/>
   <path fill="none" stroke="#000" stroke-width="5" id="svg_44" d="m48.40891,80.00421c0,0.79397 0.32671,0.82473 0,3.17589c-0.17219,1.23916 -0.67988,2.38191 -0.67988,3.17589c0,0.79396 0,2.38191 0,3.57286c0,1.98492 0,3.57286 0,4.76383c0,1.19095 0,2.38191 0,3.96986c0,1.19095 0,1.58794 0,1.98494c0,0.79397 0,0.79397 0,1.19095c0,0.39698 0.19914,1.3554 0.67988,0.79397c0.24038,-0.28071 -0.15326,-0.77617 1.01981,-1.19095c0.32535,-0.11503 0.67986,0 1.35975,-0.39699c0.67988,-0.39699 1.37794,-0.21457 2.03963,-0.39698c0.73979,-0.20394 1.69968,-0.79397 2.37956,-0.79397c1.01981,0 1.35975,0 2.37957,0c1.01981,0 1.69968,0 3.05943,0c1.01981,0 2.03963,0 2.7195,0c1.35975,0 2.03963,0 2.7195,0c1.35975,0 1.6997,0 2.7195,0c0.67986,0 1.25552,0.18214 1.69968,0.39699c0.94218,0.45576 1.35975,0.39698 1.6997,0.39698c1.01981,0 1.35975,0 2.03963,0c0.67988,0 1.35975,0 2.03963,0c0.67988,0 1.4115,-0.30384 2.03963,0c0.44414,0.21484 1.01981,0.39698 1.35975,0.39698c0,0 0.33994,0 0.67988,0c0.33993,0 0.33993,-0.39698 0.33993,-0.79396c0,-0.39699 0,-0.39699 0,-0.79397c0,-1.19095 0,-1.58794 0,-2.77889c0,-0.39699 -0.28549,-1.19608 -0.33993,-1.58794c-0.17219,-1.23916 0.05034,-1.6786 -0.33993,-2.77889c-0.18398,-0.5187 -0.33994,-0.79397 -0.33994,-1.58794c0,-0.39698 0,-1.19095 0,-1.98492c0,-0.39699 0,-0.79397 0,-1.58794c0,0 0,-0.39698 0,-0.79396c0,-0.39699 0,-0.79397 0,-0.79397c0,-0.39698 0,-0.79397 0,-1.19095l0,-0.39698l0,0l0,-0.39699"/>
   <path fill="none" stroke="#000" stroke-width="5" id="svg_45" d="m45.00954,103.02938c-0.67988,0.39698 -0.67988,0.79397 -1.35975,1.19095c-0.67988,0.39698 -2.7195,0.79397 -3.73931,1.58794c-1.01981,0.79397 -2.33929,1.66348 -3.39938,2.38191c-1.31488,0.89111 -2.37957,1.58794 -3.73931,2.38191c-0.67988,0.39699 -1.01981,0.39699 -1.35975,0.79397c-0.33993,0.39698 -1.01981,0.79397 -2.03963,1.58794c-1.01981,0.79397 -1.97995,0.83283 -2.37957,1.58794c-0.17872,0.33768 -0.23573,0.57912 -0.67988,0.79396c-0.62812,0.30384 -1.0242,0.3334 -1.35975,0.39699c-1.0611,0.20109 -1.11937,0.51325 -1.35975,0.79396c-0.24038,0.28071 -0.67988,0 -0.67988,0.79397c0,0.39698 0.67988,0 1.01981,0c0,0 0.01818,-0.18243 0.67988,0c0.73979,0.20394 1.36883,0.70277 1.69968,0.79397c0.73979,0.20394 1.038,0.21457 1.69968,0.39698c0.73979,0.20394 1.01981,0.39698 1.35975,0.39698c0.33994,0 1.01981,0 1.35975,0c0,0 0.28002,0.19305 1.01981,0.39699c0.66168,0.18243 1.29984,0.19303 2.03963,0.39698c0.66168,0.18243 1.69968,0 2.37957,0c1.01981,0 2.03963,0.39698 2.7195,0.39698c1.35975,0 2.7195,0 5.09906,0c1.35975,0 3.38367,-0.47931 4.75913,-0.79396c2.35889,-0.53963 3.73932,-0.39699 5.439,-0.39699c2.03963,0 3.39938,0 5.09906,0c1.35975,0 3.05943,0 4.07925,0c1.35975,0 2.7195,0 4.07925,0c2.03963,0 3.05943,0 5.439,0c1.35975,0 3.05943,0 4.07925,0c0.67986,0 2.04473,-0.09701 2.71949,0c1.39111,0.20001 2.01854,0.59481 4.07925,0.79397c0.67756,0.06549 2.40624,-0.08343 3.39938,0.39698c0.70226,0.3397 1.35975,0.39699 2.03963,0.39699c1.01981,0 1.35975,0 2.03963,0c0.33993,0 0.67986,0 1.35975,0c0.67988,0 1.01981,0 1.6997,0c0.33993,0 0.67986,0 1.69968,0c0.33994,0 1.35975,0 1.6997,0c0.33993,0 1.01981,0 1.35975,0c0.67988,0 1.01981,0 1.35975,0c0.33993,0 1.01981,0 1.35975,0c0.33993,0 0.67988,0 1.01981,0c0,0 0.33993,0 1.01981,0c0.33993,0 0.33993,0 0.67988,0c0.33993,0 0.67986,0 0.67986,-0.39699c0,-0.39698 -0.09956,-0.51325 -0.33993,-0.79396c-0.24037,-0.28071 -0.4959,-0.27529 -0.67988,-0.79397c-0.13009,-0.36676 0,-0.79397 -0.67986,-1.19095c0,0 -0.67988,-0.79397 -0.67988,-0.79397c-0.33993,-0.79396 -0.79755,-0.67703 -1.35975,-1.58794c-0.44446,-0.72013 -1.03895,-1.68189 -1.35975,-2.38191c-0.57834,-1.262 -1.4862,-0.94686 -2.71949,-1.98494c-0.39,-0.32827 -1.0242,-1.12737 -1.35975,-1.19095c-1.06109,-0.20109 -1.79926,-1.30722 -2.03963,-1.58794c-0.48075,-0.56143 -0.81138,-0.76126 -1.69968,-1.19095c-0.31407,-0.15192 -0.62981,-0.46571 -1.01981,-0.79397c-0.61665,-0.51905 -0.67988,-0.79396 -1.35975,-1.19095c-0.67986,-0.39698 -0.74311,-0.67192 -1.35975,-1.19095c-0.39,-0.32827 -1.01981,-0.39698 -1.35975,-0.79396c-0.33994,-0.39699 -0.70575,-0.64207 -1.01981,-0.79397c-0.44416,-0.21484 -0.67988,-0.39698 -1.01981,-0.79397c0,0 -0.09958,-0.11627 -0.33994,-0.39698c-0.24037,-0.28071 -0.67986,0 -1.01981,0l0,-0.39698l-0.33993,0l-0.33993,0"/>
   <path fill="none" stroke="#000" stroke-width="5" id="svg_48" d="m21.21389,29.58704c1.35975,0 2.37957,0 4.75913,0c1.35975,0 3.35809,-0.19589 4.4192,-0.39698c1.00664,-0.19076 2.37957,-0.39699 3.05943,-0.39699c1.6997,0 3.39938,0 5.09906,0c1.01981,0 2.05279,-0.19078 3.05943,0c1.0611,0.20109 2.03963,0.79397 3.73932,1.19095c1.69968,0.39699 3.37829,0.59481 5.439,0.79397c1.35511,0.13098 3.73932,0 4.4192,0c1.6997,0 5.439,0 7.47863,0c3.05945,0 4.75913,0 7.81858,0c2.37957,0 3.71823,-0.19781 5.77895,-0.39699c1.35511,-0.13098 3.41693,-0.14263 4.75913,-0.39699c2.12219,-0.40219 3.06518,-1.1526 5.09906,-1.58794c1.70494,-0.36493 4.05402,-0.99148 5.77894,-1.19095c2.70627,-0.31294 3.73932,0 4.07925,0c1.01981,0 1.35975,0 1.6997,0c0.67988,0 1.01981,0 1.01981,0c0.33993,0 0.67988,0 1.01981,0c0.33993,0 0.67988,0 1.35975,0c0.33994,0 0.67988,0 1.01981,0c0.33994,0 0.67988,0 1.35975,0c0.67986,0 0.67986,0.39699 1.01981,0.39699l0.33993,0l0.33993,0l0,-0.39699"/>
   <path fill="none" stroke="#000" stroke-width="5" id="svg_49" d="m21.55384,58.56699c0.32047,0 0.64095,0 0.96143,0c0.96143,0 2.24332,0 3.20475,0c0.64096,0 2.89236,0.04712 4.48666,-0.39699c1.28916,-0.3591 3.84571,-0.39699 5.76856,-0.39699c1.60238,0 4.48666,0 6.72999,0c1.60238,0 3.84571,0 5.12761,0c0.96143,0 1.94235,0.14263 4.16618,-0.39698c1.29671,-0.31466 2.88428,-0.39699 3.84571,-0.39699c1.2819,0 2.89667,-0.17674 4.16618,-0.39699c2.31056,-0.40085 3.84571,-0.79397 6.08905,-0.79397c0.64095,0 2.24332,0 3.20475,0c0.96143,0 3.20475,0 4.16618,0c1.92285,0 3.21696,-0.12974 6.40952,0.39698c1.93231,0.3188 4.17021,0.65326 5.76856,0.79397c2.2604,0.19899 3.85195,0.24051 5.1276,0.39699c1.62616,0.19947 2.56381,0.39698 3.84571,0.39698c0.96143,0 2.88428,0 3.52524,0c1.2819,0 2.24332,0 2.56381,0c0.32047,0 1.2819,0 1.92285,0c0.32047,0 0.64096,0 1.2819,0c0.32049,0 0.64096,0 0.64096,0l0.32047,0l0.32049,0l0.32047,0"/>
  </g>
 </g>
</svg>